<svg width="1280" height="720" xmlns="http://www.w3.org/2000/svg" xmlns:xlink="http://www.w3.org/1999/xlink" overflow="hidden"><defs><clipPath id="clip0"><path d="M0 0 1280 0 1280 720 0 720Z" fill-rule="evenodd" clip-rule="evenodd"/></clipPath></defs><g clip-path="url(#clip0)"><rect x="0" y="0" width="1280" height="720" fill="#FFFFFF"/><text font-family="Arial,Arial_MSFontService,sans-serif" font-weight="700" font-size="18" transform="translate(55.5031 55)">1o. Período</text><rect x="36.5001" y="75.5001" width="141" height="85" stroke="#000000" stroke-linejoin="round" stroke-miterlimit="10" fill="none"/><text font-family="Calibri,Calibri_MSFontService,sans-serif" font-weight="400" font-size="11" transform="translate(48.8399 98)">NBC                         <tspan font-weight="700" x="76.6667" y="0">128</tspan><tspan font-weight="700" x="0" y="26">INTRODUÇÃO À </tspan><tspan font-weight="700" x="0" y="38">PROGRAMAÇÃO</tspan><tspan font-family="Arial,Arial_MSFontService,sans-serif" font-weight="700" font-size="18" x="157.109" y="-43">2o. Período</tspan><tspan font-family="Arial,Arial_MSFontService,sans-serif" font-weight="700" font-size="18" x="307.556" y="-43">3o. Período</tspan><tspan font-family="Arial,Arial_MSFontService,sans-serif" font-weight="700" font-size="18" x="451.328" y="-43">4o. Período</tspan><tspan font-family="Arial,Arial_MSFontService,sans-serif" font-weight="700" font-size="18" x="623.108" y="-43">5o. Período</tspan><tspan font-family="Arial,Arial_MSFontService,sans-serif" font-weight="700" font-size="18" x="774.898" y="-43">6o. Período</tspan><tspan font-family="Arial,Arial_MSFontService,sans-serif" font-weight="700" font-size="18" x="914.677" y="-43">7o. Período</tspan></text><rect x="33.5001" y="486.5" width="146" height="85" stroke="#000000" stroke-linejoin="round" stroke-miterlimit="10" fill="none"/><text font-family="Calibri,Calibri_MSFontService,sans-serif" font-weight="700" font-size="11" transform="translate(155.884 509)">64<tspan x="-110.333" y="26">EMPREENDEDORISMO</tspan></text><rect x="38.5001" y="177.5" width="141" height="86" stroke="#000000" stroke-linejoin="round" stroke-miterlimit="10" fill="none"/><text font-family="Calibri,Calibri_MSFontService,sans-serif" font-weight="400" font-size="11" transform="translate(50.8417 200)">NBC                         <tspan font-weight="700" x="76.6667" y="0">64</tspan><tspan font-weight="700" x="0" y="26">LÓGICA MATEMÁTICA</tspan></text><rect x="187.5" y="383.5" width="142" height="85" stroke="#000000" stroke-linejoin="round" stroke-miterlimit="10" fill="none"/><text font-family="Calibri,Calibri_MSFontService,sans-serif" font-weight="400" font-size="11" transform="translate(200.175 406)">NBC                         <tspan font-weight="700" x="76.6667" y="0">32</tspan><tspan font-weight="700" x="0" y="26">COMPUTAÇÃO E </tspan><tspan font-weight="700" x="0" y="38">SOCIEDADE</tspan></text><rect x="186.5" y="75.5001" width="142" height="85" stroke="#000000" stroke-linejoin="round" stroke-miterlimit="10" fill="none"/><text font-family="Calibri,Calibri_MSFontService,sans-serif" font-weight="400" font-size="11" transform="translate(199.174 98)">NBC                          <tspan font-weight="700" x="79" y="0">96</tspan><tspan font-weight="700" x="0" y="26">CÁLCULO I (A)</tspan></text><rect x="186.5" y="177.5" width="142" height="86" stroke="#000000" stroke-linejoin="round" stroke-miterlimit="10" fill="none"/><text font-family="Calibri,Calibri_MSFontService,sans-serif" font-weight="400" font-size="11" transform="translate(199.174 200)">NBC                          <tspan font-weight="700" x="79" y="0">64</tspan><tspan font-weight="700" x="0" y="26">ALGORITMOS E E.D. I</tspan></text><rect x="186.5" y="280.5" width="142" height="85" stroke="#000000" stroke-linejoin="round" stroke-miterlimit="10" fill="none"/><text font-family="Calibri,Calibri_MSFontService,sans-serif" font-weight="400" font-size="11" transform="translate(199.174 303)">NBC                          <tspan font-weight="700" x="79" y="0">64</tspan><tspan font-weight="700" x="0" y="26">PROGRAMAÇÃO O.O.</tspan></text><rect x="187.5" y="486.5" width="142" height="85" stroke="#000000" stroke-linejoin="round" stroke-miterlimit="10" fill="none"/><text font-family="Calibri,Calibri_MSFontService,sans-serif" font-weight="700" font-size="11" transform="translate(305.175 509)">64<tspan x="-105" y="26">TRANSFORMAÇÃO </tspan><tspan x="-105" y="38">DIGITAL</tspan></text><rect x="485.5" y="75.5001" width="141" height="85" stroke="#000000" stroke-linejoin="round" stroke-miterlimit="10" fill="none"/><text font-family="Calibri,Calibri_MSFontService,sans-serif" font-weight="400" font-size="11" transform="translate(497.883 98)">NBC                          <tspan font-weight="700" x="79" y="0">64</tspan><tspan font-weight="700" x="0" y="26">ARQUITETURA DE </tspan><tspan font-weight="700" x="0" y="38">COMPUTADORES</tspan></text><rect x="337.5" y="177.5" width="141" height="86" stroke="#000000" stroke-linejoin="round" stroke-miterlimit="10" fill="none"/><text font-family="Calibri,Calibri_MSFontService,sans-serif" font-weight="400" font-size="11" transform="translate(349.508 200)">NBC                          <tspan font-weight="700" x="79" y="0">64</tspan><tspan font-weight="700" x="0" y="26">BANCO DE DADOS</tspan></text><rect x="337.5" y="280.5" width="141" height="85" stroke="#000000" stroke-linejoin="round" stroke-miterlimit="10" fill="none"/><text font-family="Calibri,Calibri_MSFontService,sans-serif" font-weight="400" font-size="11" transform="translate(349.508 303)">NBC                           <tspan font-weight="700" x="81.3333" y="0">64</tspan><tspan font-weight="700" x="0" y="26">ALGORITMOS E E.D. II</tspan></text><rect x="337.5" y="383.5" width="141" height="85" stroke="#000000" stroke-linejoin="round" stroke-miterlimit="10" fill="none"/><text font-family="Calibri,Calibri_MSFontService,sans-serif" font-weight="400" font-size="11" transform="translate(349.508 406)">NBC                           <tspan font-weight="700" x="81.3333" y="0">64</tspan><tspan font-weight="700" x="0" y="26">PROBABILIDADE E </tspan><tspan font-weight="700" x="0" y="38">ESTATÍSTICA</tspan></text><rect x="337.5" y="486.5" width="141" height="85" stroke="#000000" stroke-linejoin="round" stroke-miterlimit="10" fill="none"/><text font-family="Calibri,Calibri_MSFontService,sans-serif" font-weight="700" font-size="11" transform="translate(454.508 509)">64<tspan x="-105" y="26">PENSAMENTO ANALÍTICO </tspan><tspan x="-105" y="38">DE DADOS</tspan></text><rect x="336.5" y="75.5001" width="141" height="85" stroke="#000000" stroke-linejoin="round" stroke-miterlimit="10" fill="none"/><text font-family="Calibri,Calibri_MSFontService,sans-serif" font-weight="400" font-size="11" transform="translate(348.527 98)">NBC                         <tspan font-weight="700" x="76.6667" y="0">64</tspan><tspan font-weight="700" x="0" y="26">ANÁLISE E PROJETO DE </tspan><tspan font-weight="700" x="0" y="38">ALGORITMOS</tspan></text><rect x="486.5" y="177.5" width="141" height="86" stroke="#000000" stroke-linejoin="round" stroke-miterlimit="10" fill="none"/><text font-family="Calibri,Calibri_MSFontService,sans-serif" font-weight="400" font-size="11" transform="translate(498.842 200)">NBC                          <tspan font-weight="700" x="79" y="0">64</tspan><tspan font-weight="700" x="0" y="26">ÁLGEBRA LINEAR</tspan></text><rect x="486.5" y="280.5" width="141" height="85" stroke="#000000" stroke-linejoin="round" stroke-miterlimit="10" fill="none"/><text font-family="Calibri,Calibri_MSFontService,sans-serif" font-weight="700" font-size="11" transform="translate(580.508 303)">64<tspan x="-81.6667" y="26">MINERAÇÃO DE DADOS</tspan></text><rect x="486.5" y="383.5" width="141" height="85" stroke="#000000" stroke-linejoin="round" stroke-miterlimit="10" fill="none"/><text font-family="Calibri,Calibri_MSFontService,sans-serif" font-weight="700" font-size="11" transform="translate(603.842 406)">64<tspan x="-105" y="26">APRENDIZADO DE </tspan><tspan x="-105" y="38">MÁQUINA </tspan><tspan x="-105" y="51">SUPERVISIONADO</tspan></text><rect x="486.5" y="486.5" width="141" height="85" stroke="#000000" stroke-linejoin="round" stroke-miterlimit="10" fill="none"/><text font-family="Calibri,Calibri_MSFontService,sans-serif" font-weight="700" font-size="11" transform="translate(603.842 509)">64<tspan x="-105" y="26">PROCESSAMENTO </tspan><tspan x="-105" y="38">DIGITAL DE SINAIS E </tspan><tspan x="-105" y="51">IMAGENS</tspan></text><rect x="657.5" y="75.5001" width="141" height="85" stroke="#000000" stroke-linejoin="round" stroke-miterlimit="10" fill="none"/><text font-family="Calibri,Calibri_MSFontService,sans-serif" font-weight="700" font-size="11" transform="translate(774.508 98)">64<tspan x="-105" y="26">REDES DE </tspan><tspan x="-105" y="38">COMPUTADORES</tspan></text><rect x="657.5" y="177.5" width="141" height="86" stroke="#000000" stroke-linejoin="round" stroke-miterlimit="10" fill="none"/><text font-family="Calibri,Calibri_MSFontService,sans-serif" font-weight="700" font-size="11" transform="translate(774.508 200)">64<tspan x="-105" y="26">HEURÍSTICAS E </tspan><tspan x="-105" y="38">MODELAGEM </tspan><tspan x="-105" y="51">MULTIOBJETIVO</tspan></text><rect x="659.5" y="383.5" width="142" height="85" stroke="#000000" stroke-linejoin="round" stroke-miterlimit="10" fill="none"/><text font-family="Calibri,Calibri_MSFontService,sans-serif" font-weight="700" font-size="11" transform="translate(776.948 406)">64<tspan x="-105" y="26">VISÃO COMPUTACIONAL</tspan></text><rect x="806.5" y="280.5" width="141" height="85" stroke="#000000" stroke-linejoin="round" stroke-miterlimit="10" fill="none"/><text font-family="Calibri,Calibri_MSFontService,sans-serif" font-weight="700" font-size="11" transform="translate(923.842 303)">64<tspan x="-105" y="26">APRENDIZADO DE </tspan><tspan x="-105" y="38">MÁQUINA NÃO </tspan><tspan x="-105" y="51">SUPERVISIONADO</tspan></text><rect x="657.5" y="486.5" width="141" height="85" stroke="#000000" stroke-linejoin="round" stroke-miterlimit="10" fill="none"/><text font-family="Calibri,Calibri_MSFontService,sans-serif" font-weight="700" font-size="11" transform="translate(774.508 509)">64<tspan x="-105" y="26">COMPUTAÇÃO DE ALTO </tspan><tspan x="-105" y="38">DESEMPENHO</tspan></text><rect x="806.5" y="75.5001" width="141" height="85" stroke="#000000" stroke-linejoin="round" stroke-miterlimit="10" fill="none"/><text font-family="Calibri,Calibri_MSFontService,sans-serif" font-weight="700" font-size="11" transform="translate(923.842 98)">64<tspan x="-105" y="26">INTERNET DAS COISAS </tspan></text><rect x="657.5" y="280.5" width="141" height="85" stroke="#000000" stroke-linejoin="round" stroke-miterlimit="10" fill="none"/><text font-family="Calibri,Calibri_MSFontService,sans-serif" font-weight="700" font-size="11" transform="translate(774.508 303)">64<tspan x="-105" y="26">REDES NEURAIS </tspan><tspan x="-105" y="38">PROFUNDAS</tspan></text><rect x="806.5" y="177.5" width="141" height="86" stroke="#000000" stroke-linejoin="round" stroke-miterlimit="10" fill="none"/><text font-family="Calibri,Calibri_MSFontService,sans-serif" font-weight="700" font-size="11" transform="translate(923.842 200)">64<tspan x="-105" y="26">PROCESSAMENTO DE </tspan><tspan x="-105" y="38">LINGUAGEM NATURAL</tspan></text><rect x="806.5" y="383.5" width="141" height="85" stroke="#000000" stroke-linejoin="round" stroke-miterlimit="10" fill="none"/><text font-family="Calibri,Calibri_MSFontService,sans-serif" font-weight="700" font-size="11" transform="translate(923.842 406)">64<tspan x="-105" y="26">APRENDIZADO POR </tspan><tspan x="-105" y="38">REFORÇO</tspan></text><rect x="806.5" y="486.5" width="141" height="85" stroke="#000000" stroke-linejoin="round" stroke-miterlimit="10" fill="none"/><text font-family="Calibri,Calibri_MSFontService,sans-serif" font-weight="700" font-size="11" transform="translate(923.842 509)">64<tspan x="-105" y="26">PROCESSAMENTO DE </tspan><tspan x="-105" y="38">DADOS MASSIVOS</tspan></text><rect x="955.5" y="75.5001" width="142" height="85" stroke="#000000" stroke-linejoin="round" stroke-miterlimit="10" fill="none"/><text font-family="Calibri,Calibri_MSFontService,sans-serif" font-weight="700" font-size="11" transform="translate(1073.18 98)">96<tspan x="-105" y="26">PERCEPÇÃO E AÇÃO </tspan><tspan x="-105" y="38">ROBÓTICA</tspan></text><rect x="955.5" y="177.5" width="142" height="86" stroke="#000000" stroke-linejoin="round" stroke-miterlimit="10" fill="none"/><text font-family="Calibri,Calibri_MSFontService,sans-serif" font-weight="700" font-size="11" transform="translate(1073.18 200)">64<tspan x="-105" y="26">APOIO À TOMADA DE </tspan><tspan x="-105" y="38">DECISÃO</tspan></text><rect x="955.5" y="280.5" width="142" height="85" stroke="#000000" stroke-linejoin="round" stroke-miterlimit="10" fill="none"/><text font-family="Calibri,Calibri_MSFontService,sans-serif" font-weight="700" font-size="11" transform="translate(1073.18 303)">64<tspan x="-105" y="26">PROCESSAMENTO DE </tspan><tspan x="-105" y="38">ÁUDIO E VOZ</tspan></text><rect x="955.5" y="383.5" width="142" height="85" stroke="#000000" stroke-linejoin="round" stroke-miterlimit="10" fill="none"/><text font-family="Calibri,Calibri_MSFontService,sans-serif" font-weight="700" font-size="11" transform="translate(1073.18 406)">32<tspan x="-105" y="26">PESQUISA E INOVAÇÃO</tspan></text><rect x="955.5" y="486.5" width="142" height="85" stroke="#000000" stroke-linejoin="round" stroke-miterlimit="10" fill="none"/><text font-family="Calibri,Calibri_MSFontService,sans-serif" font-weight="700" font-size="11" transform="translate(1073.18 509)">64<tspan x="-105" y="26">OPTATIVA </tspan><tspan font-family="Arial,Arial_MSFontService,sans-serif" font-size="18" x="54.7095" y="-453">8o. Período</tspan></text><rect x="1122.5" y="75.5001" width="142" height="496" stroke="#000000" stroke-linejoin="round" stroke-miterlimit="10" fill="none"/><text font-family="Calibri,Calibri_MSFontService,sans-serif" font-weight="700" font-size="11" transform="translate(1135.24 111)">384<tspan x="0" y="25">RESIDÊNCIA EM I.A.</tspan></text><path d="M11.5001 626.668C11.5001 618.843 17.8431 612.5 25.6676 612.5L1250.33 612.5C1258.16 612.5 1264.5 618.843 1264.5 626.668L1264.5 683.332C1264.5 691.157 1258.16 697.5 1250.33 697.5L25.6676 697.5C17.8431 697.5 11.5001 691.157 11.5001 683.332Z" stroke="#595959" stroke-width="3" stroke-linejoin="round" stroke-miterlimit="10" stroke-dasharray="12 9" fill="#EEEEEE" fill-rule="evenodd"/><text font-family="Calibri,Calibri_MSFontService,sans-serif" font-weight="700" font-size="14" transform="translate(437.269 659)">CENTRO DE TECNOLOGIA DE SOFTWARE (AMBIENTE MODIFICANTE)</text><path d="M24.5001 460.5 264.5 460.5C397.048 460.5 504.5 507.51 504.5 565.5 504.5 623.49 397.048 670.5 264.5 670.5L24.5001 670.5Z" stroke="#000000" stroke-linejoin="round" stroke-miterlimit="10" fill="#808080" fill-rule="evenodd" fill-opacity="0.72549"/><text fill="#FFFFFF" font-family="Arial,Arial_MSFontService,sans-serif" font-weight="700" font-size="32" transform="translate(36.4969 560)">MENTALIDADE<tspan font-size="14" x="0" y="21">(EMPREENDEDORISMO, DIGITALIZAÇÃO, GERAÇÃO </tspan><tspan font-size="14" x="0" y="38">DE VALOR, ...)</tspan></text><path d="M358.016 403.144 625.459 178.955C773.164 55.139 951.522 24.695 1023.83 110.957 1096.14 197.218 1035.02 367.52 887.318 491.336L619.874 715.525Z" stroke="#595959" stroke-linejoin="round" stroke-miterlimit="10" fill="#808080" fill-rule="evenodd" fill-opacity="0.72549"/><text fill="#FFFFFF" font-family="Arial,Arial_MSFontService,sans-serif" font-weight="700" font-size="32" transform="matrix(0.766359 -0.642413 0.642413 0.766359 478.932 527)">TÉCNICAS<tspan font-size="18" x="-0.540283" y="25.6445">(métodos, procedimentos, maneiras, modos, táticas, estratégias, </tspan><tspan font-size="18" x="-0.480206" y="46.5729">metodologias, meios, processos, sistemas, mecanismos, formas, </tspan><tspan font-size="18" x="-0.420105" y="67.5012">vias, esquemas, estratagemas, artimanhas, ferramentas, artifícios, </tspan><tspan font-size="18" x="-0.510136" y="89.6086">dispositivos, recursos.)</tspan></text><rect x="951.5" y="68.5001" width="320" height="602" stroke="#595959" stroke-linejoin="round" stroke-miterlimit="10" fill="#808080" fill-opacity="0.72549"/><text fill="#FFFFFF" font-family="Arial,Arial_MSFontService,sans-serif" font-weight="700" font-size="32" transform="translate(1007.83 350)">INTEGRAÇÃO</text><path d="M606.857 67.9802C711.525 202.041 678.046 362.775 532.08 426.989 386.115 491.204 182.937 434.582 78.2703 300.522 19.5285 225.283 2.09423 137.587 31.069 63.093Z" stroke="#000000" stroke-linejoin="round" stroke-miterlimit="10" fill="#808080" fill-rule="evenodd" fill-opacity="0.72549"/><text fill="#FFFFFF" font-family="Arial,Arial_MSFontService,sans-serif" font-weight="700" font-size="32" transform="translate(68.3115 166)">FUNDAMENTOS:<tspan x="0" y="38">COMPUTAÇÃO E MATEMÁTICA</tspan></text></g></svg>