<svg width="1280" height="720" xmlns="http://www.w3.org/2000/svg" xmlns:xlink="http://www.w3.org/1999/xlink" overflow="hidden"><defs><clipPath id="clip0"><path d="M0 0 1280 0 1280 720 0 720Z" fill-rule="evenodd" clip-rule="evenodd"/></clipPath><clipPath id="clip1"><path d="M196 47 412 47 412 249 196 249Z" fill-rule="evenodd" clip-rule="evenodd"/></clipPath><clipPath id="clip2"><path d="M411 47 603 47 603 249 411 249Z" fill-rule="evenodd" clip-rule="evenodd"/></clipPath><clipPath id="clip3"><path d="M602 47 777 47 777 249 602 249Z" fill-rule="evenodd" clip-rule="evenodd"/></clipPath><clipPath id="clip4"><path d="M776 47 1008 47 1008 249 776 249Z" fill-rule="evenodd" clip-rule="evenodd"/></clipPath><clipPath id="clip5"><path d="M1008 47 1192 47 1192 249 1008 249Z" fill-rule="evenodd" clip-rule="evenodd"/></clipPath><clipPath id="clip6"><path d="M87 86 197 86 197 288 87 288Z" fill-rule="evenodd" clip-rule="evenodd"/></clipPath><clipPath id="clip7"><path d="M196-1 412-1 412 403 196 403Z" fill-rule="evenodd" clip-rule="evenodd"/></clipPath><clipPath id="clip8"><path d="M87 210 197 210 197 413 87 413Z" fill-rule="evenodd" clip-rule="evenodd"/></clipPath><clipPath id="clip9"><path d="M196 124 412 124 412 528 196 528Z" fill-rule="evenodd" clip-rule="evenodd"/></clipPath><clipPath id="clip10"><path d="M87 335 197 335 197 538 87 538Z" fill-rule="evenodd" clip-rule="evenodd"/></clipPath><clipPath id="clip11"><path d="M196 249 412 249 412 653 196 653Z" fill-rule="evenodd" clip-rule="evenodd"/></clipPath><clipPath id="clip12"><path d="M87 460 197 460 197 663 87 663Z" fill-rule="evenodd" clip-rule="evenodd"/></clipPath><clipPath id="clip13"><path d="M196 374 412 374 412 778 196 778Z" fill-rule="evenodd" clip-rule="evenodd"/></clipPath></defs><g clip-path="url(#clip0)"><rect x="0" y="0" width="1280" height="720" fill="#FFFFFF"/><text font-family="Calibri,Calibri_MSFontService,sans-serif" font-weight="300" font-size="59" transform="translate(97.6 108)">Horários <tspan x="213.52" y="0">2020/</tspan>1</text><path d="M88 128.846 196.66 128.846 196.66 167.779 88 167.779Z" fill="#4472C4" fill-rule="evenodd"/><path d="M196.66 128.846 411.029 128.846 411.029 167.779 196.66 167.779Z" fill="#4472C4" fill-rule="evenodd"/><path d="M411.029 128.846 602.097 128.846 602.097 167.779 411.029 167.779Z" fill="#4472C4" fill-rule="evenodd"/><path d="M602.097 128.846 776.388 128.846 776.388 167.779 602.097 167.779Z" fill="#4472C4" fill-rule="evenodd"/><path d="M776.388 128.846 1008 128.846 1008 167.779 776.388 167.779Z" fill="#4472C4" fill-rule="evenodd"/><path d="M1008 128.846 1192 128.846 1192 167.779 1008 167.779Z" fill="#4472C4" fill-rule="evenodd"/><path d="M88 167.779 196.66 167.779 196.66 292.579 88 292.579Z" fill="#CFD5EA" fill-rule="evenodd"/><path d="M196.66 167.779 411.029 167.779 411.029 292.579 196.66 292.579Z" fill="#CFD5EA" fill-rule="evenodd"/><path d="M411.029 167.779 602.097 167.779 602.097 292.579 411.029 292.579Z" fill="#CFD5EA" fill-rule="evenodd"/><path d="M602.097 167.779 776.388 167.779 776.388 292.579 602.097 292.579Z" fill="#CFD5EA" fill-rule="evenodd"/><path d="M776.388 167.779 1008 167.779 1008 292.579 776.388 292.579Z" fill="#CFD5EA" fill-rule="evenodd"/><path d="M1008 167.779 1192 167.779 1192 292.579 1008 292.579Z" fill="#CFD5EA" fill-rule="evenodd"/><path d="M88 292.579 196.66 292.579 196.66 417.379 88 417.379Z" fill="#E9EBF5" fill-rule="evenodd"/><path d="M196.66 292.579 411.029 292.579 411.029 417.379 196.66 417.379Z" fill="#E9EBF5" fill-rule="evenodd"/><path d="M411.029 292.579 602.097 292.579 602.097 417.379 411.029 417.379Z" fill="#E9EBF5" fill-rule="evenodd"/><path d="M602.097 292.579 776.388 292.579 776.388 417.379 602.097 417.379Z" fill="#E9EBF5" fill-rule="evenodd"/><path d="M776.388 292.579 1008 292.579 1008 417.379 776.388 417.379Z" fill="#E9EBF5" fill-rule="evenodd"/><path d="M1008 292.579 1192 292.579 1192 417.379 1008 417.379Z" fill="#E9EBF5" fill-rule="evenodd"/><path d="M88 417.379 196.66 417.379 196.66 542.179 88 542.179Z" fill="#CFD5EA" fill-rule="evenodd"/><path d="M196.66 417.379 411.029 417.379 411.029 542.179 196.66 542.179Z" fill="#CFD5EA" fill-rule="evenodd"/><path d="M411.029 417.379 602.097 417.379 602.097 542.179 411.029 542.179Z" fill="#CFD5EA" fill-rule="evenodd"/><path d="M602.097 417.379 776.388 417.379 776.388 542.179 602.097 542.179Z" fill="#CFD5EA" fill-rule="evenodd"/><path d="M776.388 417.379 1008 417.379 1008 542.179 776.388 542.179Z" fill="#CFD5EA" fill-rule="evenodd"/><path d="M1008 417.379 1192 417.379 1192 542.179 1008 542.179Z" fill="#CFD5EA" fill-rule="evenodd"/><path d="M88 542.179 196.66 542.179 196.66 666.979 88 666.979Z" fill="#E9EBF5" fill-rule="evenodd"/><path d="M196.66 542.179 411.029 542.179 411.029 666.979 196.66 666.979Z" fill="#E9EBF5" fill-rule="evenodd"/><path d="M411.029 542.179 602.097 542.179 602.097 666.979 411.029 666.979Z" fill="#E9EBF5" fill-rule="evenodd"/><path d="M602.097 542.179 776.388 542.179 776.388 666.979 602.097 666.979Z" fill="#E9EBF5" fill-rule="evenodd"/><path d="M776.388 542.179 1008 542.179 1008 666.979 776.388 666.979Z" fill="#E9EBF5" fill-rule="evenodd"/><path d="M1008 542.179 1192 542.179 1192 666.979 1008 666.979Z" fill="#E9EBF5" fill-rule="evenodd"/><path d="M196.66 128.179 196.66 667.646" stroke="#FFFFFF" stroke-width="1.33333" stroke-linejoin="round" stroke-miterlimit="10" fill="none" fill-rule="evenodd"/><path d="M411.029 128.179 411.029 667.646" stroke="#FFFFFF" stroke-width="1.33333" stroke-linejoin="round" stroke-miterlimit="10" fill="none" fill-rule="evenodd"/><path d="M602.097 128.179 602.097 667.646" stroke="#FFFFFF" stroke-width="1.33333" stroke-linejoin="round" stroke-miterlimit="10" fill="none" fill-rule="evenodd"/><path d="M776.388 128.179 776.388 667.646" stroke="#FFFFFF" stroke-width="1.33333" stroke-linejoin="round" stroke-miterlimit="10" fill="none" fill-rule="evenodd"/><path d="M1008 128.179 1008 667.646" stroke="#FFFFFF" stroke-width="1.33333" stroke-linejoin="round" stroke-miterlimit="10" fill="none" fill-rule="evenodd"/><path d="M87.3333 167.779 1192.67 167.779" stroke="#FFFFFF" stroke-width="4" stroke-linejoin="round" stroke-miterlimit="10" fill="none" fill-rule="evenodd"/><path d="M87.3333 292.579 1192.67 292.579" stroke="#FFFFFF" stroke-width="1.33333" stroke-linejoin="round" stroke-miterlimit="10" fill="none" fill-rule="evenodd"/><path d="M87.3333 417.379 1192.67 417.379" stroke="#FFFFFF" stroke-width="1.33333" stroke-linejoin="round" stroke-miterlimit="10" fill="none" fill-rule="evenodd"/><path d="M87.3333 542.179 1192.67 542.179" stroke="#FFFFFF" stroke-width="1.33333" stroke-linejoin="round" stroke-miterlimit="10" fill="none" fill-rule="evenodd"/><path d="M88 128.179 88 667.646" stroke="#FFFFFF" stroke-width="1.33333" stroke-linejoin="round" stroke-miterlimit="10" fill="none" fill-rule="evenodd"/><path d="M1192 128.179 1192 667.646" stroke="#FFFFFF" stroke-width="1.33333" stroke-linejoin="round" stroke-miterlimit="10" fill="none" fill-rule="evenodd"/><path d="M87.3333 128.846 1192.67 128.846" stroke="#FFFFFF" stroke-width="1.33333" stroke-linejoin="round" stroke-miterlimit="10" fill="none" fill-rule="evenodd"/><path d="M87.3333 666.979 1192.67 666.979" stroke="#FFFFFF" stroke-width="1.33333" stroke-linejoin="round" stroke-miterlimit="10" fill="none" fill-rule="evenodd"/><g clip-path="url(#clip1)"><text fill="#FFFFFF" font-family="Calibri,Calibri_MSFontService,sans-serif" font-weight="700" font-size="24" transform="translate(206.26 156)">Segunda</text></g><g clip-path="url(#clip2)"><text fill="#FFFFFF" font-family="Calibri,Calibri_MSFontService,sans-serif" font-weight="700" font-size="24" transform="translate(420.629 156)">Terça</text></g><g clip-path="url(#clip3)"><text fill="#FFFFFF" font-family="Calibri,Calibri_MSFontService,sans-serif" font-weight="700" font-size="24" transform="translate(611.697 156)">Quarta</text></g><g clip-path="url(#clip4)"><text fill="#FFFFFF" font-family="Calibri,Calibri_MSFontService,sans-serif" font-weight="700" font-size="24" transform="translate(785.988 156)">Quinta</text></g><g clip-path="url(#clip5)"><text fill="#FFFFFF" font-family="Calibri,Calibri_MSFontService,sans-serif" font-weight="700" font-size="24" transform="translate(1017.6 156)">Sexta</text></g><g clip-path="url(#clip6)"><text font-family="Calibri,Calibri_MSFontService,sans-serif" font-weight="400" font-size="24" transform="translate(97.6 195)">14:00h</text></g><g clip-path="url(#clip7)"><text font-family="Calibri,Calibri_MSFontService,sans-serif" font-weight="400" font-size="24" transform="translate(206.26 195)">Empreendedorismo</text></g><text font-family="Calibri,Calibri_MSFontService,sans-serif" font-weight="400" font-size="24" transform="translate(232.107 224)">Local: 206 CAB<tspan x="212.693" y="-29">Introdução </tspan><tspan x="324.72" y="-29">à </tspan><tspan x="210.246" y="0">Programação</tspan><tspan x="206.306" y="29">Local: 154 INF</tspan><tspan x="568.304" y="-29">Lógica </tspan><tspan x="634.937" y="-29">Matemática</tspan><tspan x="588.357" y="0">Local: 206 CAB</tspan><tspan x="806.06" y="-29">Introdução </tspan><tspan x="918.087" y="-29">à </tspan><tspan x="803.613" y="0">Programação</tspan><tspan x="799.673" y="29">Local: 154 INF</tspan></text><g clip-path="url(#clip8)"><text font-family="Calibri,Calibri_MSFontService,sans-serif" font-weight="400" font-size="24" transform="translate(97.6 319)">15:00h</text></g><g clip-path="url(#clip9)"><text font-family="Calibri,Calibri_MSFontService,sans-serif" font-weight="400" font-size="24" transform="translate(206.26 319)">Empreendedorismo</text></g><text font-family="Calibri,Calibri_MSFontService,sans-serif" font-weight="400" font-size="24" transform="translate(232.107 348)">Local: 206 CAB<tspan x="212.676" y="-29">Introdução </tspan><tspan x="324.702" y="-29">à </tspan><tspan x="210.229" y="0">Programação</tspan><tspan x="206.289" y="29">Local: 154 INF</tspan><tspan x="568.304" y="-29">Lógica </tspan><tspan x="634.937" y="-29">Matemática</tspan><tspan x="588.357" y="0">Local: 206 CAB</tspan><tspan x="806.06" y="-29">Introdução </tspan><tspan x="918.087" y="-29">à </tspan><tspan x="803.613" y="0">Programação</tspan><tspan x="799.673" y="29">Local: 154 INF</tspan></text><g clip-path="url(#clip10)"><text font-family="Calibri,Calibri_MSFontService,sans-serif" font-weight="400" font-size="24" transform="translate(97.6 444)">16:00h</text></g><g clip-path="url(#clip11)"><text font-family="Calibri,Calibri_MSFontService,sans-serif" font-weight="400" font-size="24" transform="translate(206.26 444)">Empreendedorismo</text></g><text font-family="Calibri,Calibri_MSFontService,sans-serif" font-weight="400" font-size="24" transform="translate(232.107 473)">Local: 206 CAB<tspan x="212.676" y="-29">Introdução </tspan><tspan x="324.702" y="-29">à </tspan><tspan x="210.229" y="0">Programação</tspan><tspan x="206.289" y="29">Local: 154 INF</tspan><tspan x="568.262" y="-29">Lógica </tspan>Matemática<tspan x="591.895" y="0">Local: 154 INF</tspan><tspan x="806.06" y="-29">Introdução </tspan><tspan x="918.087" y="-29">à </tspan><tspan x="803.613" y="0">Programação</tspan><tspan x="799.673" y="29">Local: 154 INF</tspan></text><g clip-path="url(#clip12)"><text font-family="Calibri,Calibri_MSFontService,sans-serif" font-weight="400" font-size="24" transform="translate(97.6 569)">17:00h</text></g><g clip-path="url(#clip13)"><text font-family="Calibri,Calibri_MSFontService,sans-serif" font-weight="400" font-size="24" transform="translate(206.26 569)">Empreendedorismo</text></g><text font-family="Calibri,Calibri_MSFontService,sans-serif" font-weight="400" font-size="24" transform="translate(232.107 598)">Local: 206 CAB<tspan x="212.676" y="-29">Introdução </tspan><tspan x="324.702" y="-29">à </tspan><tspan x="210.229" y="0">Programação</tspan><tspan x="206.289" y="29">Local: 154 INF</tspan><tspan x="568.262" y="-29">Lógica </tspan>Matemática<tspan x="591.895" y="0">Local: 154 INF</tspan><tspan x="806.06" y="-29">Introdução </tspan><tspan x="918.087" y="-29">à </tspan><tspan x="803.613" y="0">Programação</tspan><tspan x="799.673" y="29">Local: 154 INF</tspan><tspan font-weight="700" x="-134.507" y="96">CAB: Centro de aulas B;    INF Prédio do Instituto de Informática </tspan></text></g></svg>